<svg width="24" height="24" viewBox="0 0 24 24" fill="none" xmlns="http://www.w3.org/2000/svg">
<path d="M12 11.1515L16.9757 6.17574C17.2101 5.94142 17.59 5.94142 17.8243 6.17574C18.0586 6.41005 18.0586 6.78995 17.8243 7.02426L12.8485 12L17.8243 16.9757C18.0586 17.2101 18.0586 17.59 17.8243 17.8243C17.59 18.0586 17.2101 18.0586 16.9757 17.8243L12 12.8485L7.02426 17.8243C6.78995 18.0586 6.41005 18.0586 6.17574 17.8243C5.94142 17.59 5.94142 17.2101 6.17574 16.9757L11.1515 12L6.17574 7.02426C5.94142 6.78995 5.94142 6.41005 6.17574 6.17574C6.41005 5.94142 6.78995 5.94142 7.02426 6.17574L12 11.1515Z" fill="#B92519"/>
</svg>
