<svg width="18" height="18" viewBox="0 0 18 18" fill="none" xmlns="http://www.w3.org/2000/svg">
<g clip-path="url(#clip0_2792_12361)">
<path d="M3.7338 17H14.2644C16.0876 17 16.9904 16.0971 16.9904 14.3086V3.70859C16.9904 1.92021 16.0876 1.01733 14.2644 1.01733H3.7338C1.91937 1.01733 1.00781 1.91153 1.00781 3.70859V14.3086C1.00781 16.1057 1.91937 17 3.7338 17Z" fill="#28A745"/>
<path d="M4.76758 9.00436C4.76758 8.55291 5.08011 8.24038 5.53155 8.24038H8.24885V5.52308C8.24885 5.07164 8.55271 4.75043 8.99542 4.75043C9.44688 4.75043 9.75943 5.07164 9.75943 5.52308V8.24038H12.4854C12.9281 8.24038 13.2494 8.55291 13.2494 9.00436C13.2494 9.44707 12.9281 9.74229 12.4854 9.74229H9.75943V12.4683C9.75943 12.9197 9.44688 13.2322 8.99542 13.2322C8.55271 13.2322 8.24885 12.911 8.24885 12.4683V9.74229H5.53155C5.08011 9.74229 4.76758 9.44707 4.76758 9.00436Z" fill="white"/>
</g>
<defs>
<clipPath id="clip0_2792_12361">
<rect width="15.9826" height="16" fill="white" transform="translate(1.00781 1)"/>
</clipPath>
</defs>
</svg>
