<svg width="24" height="24" viewBox="0 0 24 24" fill="none" xmlns="http://www.w3.org/2000/svg">
<g clip-path="url(#clip0_2652_5681)">
<path d="M4.57865 18.628H14.9894C16.5823 18.628 17.3749 17.8355 17.3749 16.2654V6.95979C17.3749 5.38979 16.5823 4.59717 14.9894 4.59717H4.57865C2.98579 4.59717 2.18555 5.38217 2.18555 6.95979V16.2654C2.18555 17.8431 2.98579 18.628 4.57865 18.628ZM4.46433 17.401C3.78603 17.401 3.41259 17.0429 3.41259 16.334V9.1471C3.41259 8.44595 3.78603 8.08013 4.46433 8.08013H15.0885C15.7668 8.08013 16.1479 8.44595 16.1479 9.1471V16.334C16.1479 17.0429 15.7668 17.401 15.0885 17.401H4.46433Z" fill="#A7A2A2"/>
<path d="M5.78971 15.5033H10.8732C11.1399 15.5033 11.3457 15.3052 11.3457 15.046C11.3457 14.7793 11.1399 14.5659 10.8732 14.5659H5.78971C5.50773 14.5659 5.30957 14.7793 5.30957 15.046C5.30957 15.3052 5.50773 15.5033 5.78971 15.5033Z" fill="#A7A2A2"/>
<path d="M5.78971 13.2093H13.7922C14.0589 13.2093 14.2646 13.0111 14.2646 12.752C14.2646 12.4776 14.0589 12.2719 13.7922 12.2719H5.78971C5.50773 12.2719 5.30957 12.4776 5.30957 12.752C5.30957 13.0111 5.50773 13.2093 5.78971 13.2093Z" fill="#A7A2A2"/>
<path d="M5.78971 10.9153H13.7922C14.0589 10.9153 14.2646 10.7019 14.2646 10.4352C14.2646 10.1761 14.0589 9.97791 13.7922 9.97791H5.78971C5.50773 9.97791 5.30957 10.1761 5.30957 10.4352C5.30957 10.7019 5.50773 10.9153 5.78971 10.9153Z" fill="#A7A2A2"/>
<path d="M16.7732 21.1049C19.4483 21.1049 21.6814 18.8719 21.6814 16.1891C21.6814 13.4912 19.4711 11.2734 16.7732 11.2734C14.0752 11.2734 11.8574 13.4988 11.8574 16.1891C11.8574 18.8948 14.0676 21.1049 16.7732 21.1049Z" fill="white"/>
<path d="M16.772 20.061C18.8679 20.061 20.6437 18.3081 20.6437 16.1893C20.6437 14.0629 18.8907 12.3176 16.772 12.3176C14.6457 12.3176 12.9004 14.0705 12.9004 16.1893C12.9004 18.3233 14.6457 20.061 16.772 20.061Z" fill="#A7A2A2"/>
<path d="M16.7732 18.6128C16.4912 18.6128 16.3083 18.4299 16.3083 18.1479V16.6541H14.8145C14.5402 16.6541 14.3496 16.4712 14.3496 16.1892C14.3496 15.9072 14.5402 15.7243 14.8145 15.7243H16.3083V14.2305C16.3083 13.9562 16.4912 13.7656 16.7732 13.7656C17.0552 13.7656 17.2381 13.9562 17.2381 14.2305V15.7243H18.7243C19.0063 15.7243 19.1968 15.9072 19.1968 16.1892C19.1968 16.4712 19.0063 16.6541 18.7243 16.6541H17.2381V18.1479C17.2381 18.4299 17.0552 18.6128 16.7732 18.6128Z" fill="white"/>
</g>
<defs>
<clipPath id="clip0_2652_5681">
<rect width="19.4954" height="19" fill="white" transform="translate(2.18555 2.10498)"/>
</clipPath>
</defs>
</svg>
