<svg width="16" height="14" viewBox="0 0 16 14" fill="none" xmlns="http://www.w3.org/2000/svg">
<path d="M13.6737 13.6C15.2161 13.6 15.9908 12.8399 15.9908 11.3124V2.30234C15.9908 0.774835 15.2161 0.0147705 13.6737 0.0147705H7.26116C6.39784 0.0147705 5.65251 0.236148 5.04741 0.878143L0.701029 5.39425C0.221377 5.88866 0 6.33142 0 6.79633C0 7.2538 0.213999 7.70397 0.701029 8.19835L5.05479 12.6923C5.66727 13.327 6.40521 13.5926 7.26859 13.5926L13.6737 13.6Z" fill="#A7A2A2"/>
<path d="M6.87032 9.90301C6.53085 9.90301 6.25781 9.62998 6.25781 9.28314C6.25781 9.1208 6.32425 8.9732 6.43495 8.85514L8.48637 6.81108L6.43495 4.75965C6.32425 4.64158 6.25781 4.494 6.25781 4.33165C6.25781 3.9922 6.53085 3.72655 6.87032 3.72655C7.04002 3.72655 7.17283 3.79297 7.29089 3.90365L9.34975 5.95509L11.4233 3.89627C11.5487 3.77083 11.6816 3.71179 11.8439 3.71179C12.1834 3.71179 12.449 3.98482 12.449 4.31689C12.449 4.48662 12.4047 4.61944 12.2719 4.75227L10.2205 6.81108L12.2646 8.84777C12.39 8.96584 12.4416 9.11344 12.4416 9.28314C12.4416 9.62998 12.176 9.90301 11.8292 9.90301C11.6594 9.90301 11.5044 9.83658 11.3938 9.72588L9.34975 7.66709L7.31306 9.72588C7.19499 9.83658 7.04002 9.90301 6.87032 9.90301Z" fill="white"/>
</svg>
