<svg width="17" height="15" viewBox="0 0 17 15" fill="none" xmlns="http://www.w3.org/2000/svg">
<g clip-path="url(#clip0_2792_18607)">
<path d="M1.94907 13.7348H15.5478C15.8979 13.7348 16.1843 13.4484 16.1843 13.0982C16.1843 12.7482 15.8979 12.4537 15.5478 12.4537H1.94907C1.59895 12.4537 1.3125 12.7482 1.3125 13.0982C1.3125 13.4484 1.59895 13.7348 1.94907 13.7348Z" fill="#A7A2A2"/>
<path d="M3.86656 13.9418L14.2267 3.62143C15.0622 2.79389 15.0701 1.67989 14.2904 0.892141L14.0198 0.61364C13.248 -0.18207 12.126 -0.142284 11.2905 0.66934L0.954261 10.9897L0.102854 12.963C-0.342744 14.0213 0.739423 15.1353 1.81363 14.7216L3.86656 13.9418Z" fill="white"/>
<path d="M3.26897 13.0028L11.9581 4.32962L10.5577 2.92917L1.87648 11.6024L1.1126 13.3768C1.04098 13.5678 1.23991 13.7906 1.43088 13.711L3.26897 13.0028ZM12.6504 3.6453L13.454 2.85755C13.8678 2.45174 13.8917 2.0141 13.5177 1.64807L13.2551 1.37753C12.8891 1.01946 12.4515 1.05129 12.0536 1.44914L11.242 2.24485L12.6504 3.6453Z" fill="#A7A2A2"/>
</g>
<defs>
<clipPath id="clip0_2792_18607">
<rect width="16.1842" height="14.81" fill="white"/>
</clipPath>
</defs>
</svg>
