<svg width="32" height="32" viewBox="0 0 32 32" fill="none" xmlns="http://www.w3.org/2000/svg">
<rect width="32" height="32" rx="4" fill="#F7F9FF"/>
<path d="M22 20.6667V19.5694C22 19.0242 21.6681 18.5339 21.1619 18.3314L19.8058 17.789C19.1619 17.5314 18.4281 17.8104 18.118 18.4307L18 18.6667C18 18.6667 16.3333 18.3333 15 17C13.6667 15.6667 13.3333 14 13.3333 14L13.5693 13.882C14.1896 13.5719 14.4686 12.8381 14.211 12.1942L13.6686 10.8381C13.4661 10.3319 12.9758 10 12.4306 10H11.3333C10.597 10 10 10.597 10 11.3333C10 17.2244 14.7756 22 20.6667 22C21.403 22 22 21.403 22 20.6667Z" fill="#3A3A3A"/>
</svg>
