<svg width="19" height="19" viewBox="0 0 19 19" fill="none" xmlns="http://www.w3.org/2000/svg">
<path d="M9.38319 18.0549C14.245 18.0549 18.2703 14.0209 18.2703 9.16787C18.2703 4.30609 14.2362 0.280762 9.37449 0.280762C4.52139 0.280762 0.496094 4.30609 0.496094 9.16787C0.496094 14.0209 4.53017 18.0549 9.38319 18.0549ZM9.37449 16.7306C7.37924 16.7306 5.35783 15.9116 4.02481 14.4914C4.96578 13.0103 7.01329 12.139 9.37449 12.139C11.7182 12.139 13.7832 12.9928 14.7329 14.4914C13.3911 15.9116 11.3784 16.7306 9.37449 16.7306ZM9.37449 10.6578C7.70162 10.6403 6.38601 9.24623 6.38601 7.373C6.37723 5.61302 7.71032 4.14926 9.37449 4.14926C11.0474 4.14926 12.363 5.61302 12.363 7.373C12.363 9.24623 11.0561 10.6752 9.37449 10.6578Z" fill="#A7A2A2"/>
</svg>
