<svg width="32" height="32" viewBox="0 0 32 32" fill="none" xmlns="http://www.w3.org/2000/svg">
<rect width="32" height="32" rx="4" fill="#F7F9FF"/>
<g clip-path="url(#clip0_2787_10792)">
<path fill-rule="evenodd" clip-rule="evenodd" d="M16 8.5C11.8641 8.5 8.5 11.8641 8.5 16C8.5 20.1359 11.8641 23.5 16 23.5C17.5148 23.5 18.976 23.0489 20.2248 22.1955L20.2263 22.1944L20.3982 22.0741L19.1968 20.6778L19.0587 20.7641L19.0568 20.7653C18.1441 21.353 17.0869 21.6633 16 21.6633C12.8774 21.6633 10.3367 19.1226 10.3367 16C10.3367 12.8774 12.8774 10.3367 16 10.3367C19.1226 10.3367 21.6633 12.8774 21.6633 16C21.6633 16.4034 21.6182 16.8125 21.5304 17.2154C21.4462 17.5594 21.2878 17.7699 21.1189 17.8922C20.948 18.016 20.7561 18.0571 20.5939 18.0449C20.4258 18.0312 20.2473 17.9645 20.1121 17.8333C19.98 17.7051 19.8773 17.504 19.8758 17.1956V16C19.8758 13.8625 18.1375 12.1242 16 12.1242C13.8625 12.1242 12.1242 13.8625 12.1242 16C12.1242 18.1375 13.8625 19.8758 16 19.8758C16.9719 19.8758 17.8878 19.52 18.6027 18.8692C19.0441 19.4529 19.7048 19.8162 20.4468 19.8757C20.5164 19.8814 20.5874 19.8841 20.6572 19.8841C21.2275 19.8841 21.7916 19.6933 22.2467 19.3483C22.7164 18.9912 23.0636 18.4784 23.2541 17.8689L23.2543 17.8681C23.27 17.8172 23.2914 17.7368 23.3083 17.6716C23.3169 17.6384 23.3245 17.6082 23.3301 17.586L23.3368 17.5592L23.3388 17.5508L23.3397 17.5469L23.3405 17.543L23.3407 17.5423L23.3418 17.5367C23.4516 17.058 23.5 16.5822 23.5 16C23.5 11.8641 20.1359 8.5 16 8.5ZM18.6027 18.8692C18.5691 18.8247 18.6337 18.9161 18.6027 18.8692C18.5628 18.9087 18.6439 18.8316 18.6027 18.8692C18.6334 18.9169 18.5691 18.8241 18.6027 18.8692C18.6442 18.831 18.5627 18.9094 18.6027 18.8692ZM21.5308 17.2135L21.5299 17.2174L21.5304 17.2154L21.5308 17.2135ZM13.9609 16C13.9609 14.8758 14.8758 13.9609 16 13.9609C17.1242 13.9609 18.0391 14.8758 18.0391 16C18.0391 17.1242 17.1242 18.0391 16 18.0391C14.8758 18.0391 13.9609 17.1242 13.9609 16Z" fill="#3A3A3A"/>
</g>
<defs>
<clipPath id="clip0_2787_10792">
<rect width="16" height="16" fill="white" transform="translate(8 8)"/>
</clipPath>
</defs>
</svg>
