<svg width="16" height="16" viewBox="0 0 16 16" fill="none" xmlns="http://www.w3.org/2000/svg">
<path d="M1.97587 12.952H14.0234C14.7378 12.952 15.1711 12.5871 15.1711 12.0323C15.1711 11.2722 14.3958 10.5881 13.7422 9.9116C13.2404 9.38719 13.1037 8.30783 13.0428 7.4337C12.9896 4.51496 12.2143 2.50831 10.1925 1.77862C9.90366 0.782896 9.12078 0 7.99582 0C6.87847 0 6.08798 0.782896 5.80674 1.77862C3.78489 2.50831 3.00959 4.51496 2.95639 7.4337C2.89558 8.30783 2.75876 9.38719 2.2571 9.9116C1.59582 10.5881 0.828125 11.2722 0.828125 12.0323C0.828125 12.5871 1.25378 12.952 1.97587 12.952ZM7.99582 16C9.28799 16 10.2305 15.0574 10.3293 13.9933H5.66992C5.76874 15.0574 6.71125 16 7.99582 16Z" fill="#A7A2A2"/>
</svg>
