<svg width="18" height="18" viewBox="0 0 18 18" fill="none" xmlns="http://www.w3.org/2000/svg">
<path d="M8.20376 17.9914H9.78765C10.2353 17.9914 10.5624 17.7245 10.6571 17.2855L11.1047 15.3917C11.4404 15.2798 11.7676 15.1506 12.0516 15.0129L13.7131 16.0287C14.0832 16.2611 14.505 16.2267 14.8149 15.9168L15.9254 14.8149C16.2353 14.505 16.2784 14.0574 16.0287 13.6872L15.0129 12.043C15.1592 11.7418 15.2884 11.4319 15.3831 11.1219L17.2941 10.6657C17.7331 10.571 17.9914 10.2439 17.9914 9.79624V8.23813C17.9914 7.79915 17.7331 7.47204 17.2941 7.37736L15.4003 6.9211C15.2884 6.56815 15.1506 6.24964 15.0301 5.98278L16.046 4.31277C16.287 3.94261 16.2611 3.52081 15.9426 3.2109L14.8149 2.10043C14.4964 1.80775 14.1177 1.75609 13.7389 1.9713L12.0516 3.01291C11.7761 2.86657 11.4577 2.73745 11.1047 2.62554L10.6571 0.705883C10.5624 0.266858 10.2353 0 9.78765 0H8.20376C7.7561 0 7.429 0.266858 7.32569 0.705883L6.87805 2.60832C6.54233 2.72023 6.21521 2.84936 5.92253 3.0043L4.25251 1.9713C3.87375 1.75609 3.48637 1.79914 3.16786 2.10043L2.04878 3.2109C1.73027 3.52081 1.69584 3.94261 1.94548 4.31277L2.95265 5.98278C2.84075 6.24964 2.70302 6.56815 2.5911 6.9211L0.697274 7.37736C0.258249 7.47204 0 7.79915 0 8.23813V9.79624C0 10.2439 0.258249 10.571 0.697274 10.6657L2.60832 11.1219C2.70302 11.4319 2.83214 11.7418 2.96987 12.043L1.9627 13.6872C1.70445 14.0574 1.75609 14.505 2.066 14.8149L3.16786 15.9168C3.47777 16.2267 3.90818 16.2611 4.27834 16.0287L5.93114 15.0129C6.22382 15.1506 6.54233 15.2798 6.87805 15.3917L7.32569 17.2855C7.429 17.7245 7.7561 17.9914 8.20376 17.9914ZM8.9957 12.0344C7.32569 12.0344 5.95696 10.6571 5.95696 8.98711C5.95696 7.32569 7.32569 5.95696 8.9957 5.95696C10.6657 5.95696 12.0344 7.32569 12.0344 8.98711C12.0344 10.6571 10.6657 12.0344 8.9957 12.0344Z" fill="#A7A2A2"/>
</svg>
