<svg width="20" height="20" viewBox="0 0 20 20" fill="none" xmlns="http://www.w3.org/2000/svg">
<path fill-rule="evenodd" clip-rule="evenodd" d="M8.26795 2.14279C9.33975 1.50807 10.6603 1.50807 11.732 2.14279L15.7679 4.53285C16.8397 5.16757 17.5 6.34058 17.5 7.61002V12.3901C17.5 13.6596 16.8397 14.8326 15.7679 15.4673L11.732 17.8574C10.6603 18.4921 9.33975 18.4921 8.26795 17.8574L4.23205 15.4673C3.16025 14.8326 2.5 13.6596 2.5 12.3901V7.61002C2.5 6.34058 3.16025 5.16757 4.23205 4.53285L8.26795 2.14279ZM9.16667 14.1667C9.16667 13.7065 9.53976 13.3334 10 13.3334C10.4602 13.3334 10.8333 13.7065 10.8333 14.1667C10.8333 14.627 10.4602 15.0001 10 15.0001C9.53976 15.0001 9.16667 14.627 9.16667 14.1667ZM9.375 11.6667C9.375 12.0119 9.65482 12.2917 10 12.2917C10.3452 12.2917 10.625 12.0119 10.625 11.6667L10.625 5.83342C10.625 5.48824 10.3452 5.20841 10 5.20841C9.65482 5.20841 9.375 5.48824 9.375 5.83342L9.375 11.6667Z" fill="#DF5747"/>
</svg>
