<svg width="16" height="16" viewBox="0 0 16 16" fill="none" xmlns="http://www.w3.org/2000/svg">
<path d="M15.0017 8.15546C15.0017 7.57991 14.954 7.15991 14.8509 6.72437H8.14453V9.32211H12.081C12.0017 9.96769 11.5731 10.9399 10.6207 11.5932L10.6074 11.6802L12.7278 13.29L12.8747 13.3044C14.2239 12.0832 15.0017 10.2866 15.0017 8.15546Z" fill="#4285F4"/>
<path d="M8.14266 15C10.0712 15 11.6902 14.3777 12.8728 13.3044L10.6188 11.5933C10.0157 12.0055 9.20613 12.2933 8.14266 12.2933C6.25379 12.2933 4.65064 11.0722 4.07916 9.3844L3.99539 9.39137L1.79055 11.0636L1.76172 11.1422C2.93631 13.4288 5.349 15 8.14266 15Z" fill="#34A853"/>
<path d="M4.07933 9.38448C3.92854 8.94893 3.84127 8.48223 3.84127 8.00003C3.84127 7.51778 3.92854 7.05113 4.0714 6.61558L4.0674 6.52282L1.83493 4.82373L1.76189 4.85778C1.27778 5.80668 1 6.87226 1 8.00003C1 9.1278 1.27778 10.1933 1.76189 11.1422L4.07933 9.38448Z" fill="#FBBC05"/>
<path d="M8.1427 3.70665C9.48395 3.70665 10.3887 4.27442 10.9046 4.7489L12.9205 2.82C11.6824 1.69222 10.0712 1 8.1427 1C5.34902 1 2.93631 2.5711 1.76172 4.85775L4.07124 6.61555C4.65066 4.92777 6.25382 3.70665 8.1427 3.70665Z" fill="#EB4335"/>
</svg>
