<svg width="16" height="16" viewBox="0 0 16 16" fill="none" xmlns="http://www.w3.org/2000/svg">
<path d="M6.63193 7.86865C6.63193 7.69367 6.59962 7.50265 6.49798 7.35592C6.29419 7.0618 5.85671 6.96826 5.55219 7.15359C5.39827 7.24734 5.31266 7.41101 5.26441 7.57906C5.16859 7.91274 5.21253 8.29351 5.27953 8.6286C5.30094 8.73577 5.32306 8.84309 5.35312 8.9483C5.36398 8.98625 5.36901 9.0414 5.39369 9.07297C5.43676 9.12816 5.54193 9.14414 5.60642 9.13329C5.7999 9.10076 5.75199 8.78217 5.74541 8.6467C5.72998 8.32936 5.63648 8.02136 5.72706 7.70573C5.76541 7.57217 5.83951 7.42197 5.97438 7.36396C6.09613 7.31153 6.21898 7.37567 6.26719 7.49461C6.34525 7.68718 6.32574 7.90952 6.3747 8.10989C6.39134 8.178 6.40964 8.24546 6.44035 8.30895C6.44925 8.32729 6.46152 8.36545 6.4873 8.36313C6.54999 8.3574 6.63911 8.2528 6.68611 8.21399C6.83792 8.08852 6.9939 7.95416 7.16868 7.86131C7.25092 7.81763 7.38623 7.7469 7.47023 7.8212C7.49164 7.84015 7.50889 7.86277 7.52422 7.88675C7.62294 8.04142 7.52492 8.16191 7.46073 8.309C7.37764 8.49936 7.29249 8.68781 7.1721 8.85792C7.0686 9.0042 6.92715 9.13243 6.84445 9.29223C6.79122 9.39513 6.76111 9.50788 6.78312 9.624C6.80097 9.7179 6.87376 9.7746 6.96952 9.75259C7.0412 9.7361 7.08976 9.67467 7.13063 9.61797C7.20346 9.51683 7.27112 9.41187 7.34351 9.31033C7.48356 9.11393 7.64879 8.93031 7.76656 8.71918C7.90852 8.46468 7.97698 8.17669 7.97683 7.8868C7.97673 7.64989 7.89082 7.28781 7.6149 7.23814C7.56298 7.22884 7.50361 7.23392 7.45203 7.24292C7.38795 7.25408 7.3236 7.27494 7.26504 7.30329C7.10816 7.37919 6.97248 7.49255 6.85591 7.62143C6.78318 7.70176 6.71803 7.8028 6.63172 7.86875" fill="#3A3A3A"/>
<path d="M6.37377 2.00839C6.15616 2.03699 5.93498 2.03403 5.71632 2.06781C5.29744 2.1325 4.89625 2.26265 4.50391 2.41963C4.36105 2.47679 4.2201 2.54048 4.08167 2.60748C4.03015 2.63242 3.95157 2.65237 3.91015 2.69239C3.88859 2.71325 3.8908 2.76211 3.88818 2.79001C3.8809 2.86847 3.8711 2.94684 3.8635 3.02526C3.8342 3.32787 3.81354 3.63963 3.85687 3.94209C3.8709 4.03981 3.90126 4.21706 4.02135 4.23581C4.20603 4.26471 4.34949 4.03745 4.44012 3.91193C4.6518 3.61877 4.89263 3.34587 5.23978 3.21482C5.64846 3.06055 6.11635 3.0242 6.54871 2.99454C7.76172 2.9114 9.08727 3.13298 9.98083 4.02654C10.1079 4.15362 10.2282 4.28849 10.3305 4.43673C10.7306 5.01611 10.9422 5.67492 11.044 6.36691C11.0919 6.69179 11.1247 7.02054 11.0506 7.34406C10.922 7.90535 10.5848 8.3939 10.1974 8.80982C9.93227 9.09449 9.63388 9.35181 9.32333 9.5857C9.14995 9.71625 8.95552 9.82699 8.7925 9.9697C8.60475 10.1341 8.44857 10.3398 8.32989 10.5591C8.01049 11.1496 7.92483 11.8602 8.01878 12.5194C8.03803 12.6545 8.05543 12.7903 8.08604 12.9236C8.09519 12.9634 8.0968 13.032 8.12258 13.0645C8.17084 13.1255 8.30254 13.159 8.37628 13.1626C8.45319 13.1663 8.50437 13.1072 8.52322 13.0382C8.55549 12.92 8.53619 12.7891 8.51749 12.6702C8.47918 12.4267 8.4441 12.1815 8.45495 11.9344C8.47496 11.478 8.6514 11.0527 8.96768 10.722C9.28935 10.3856 9.72381 10.1916 10.0894 9.90978C10.8261 9.34185 11.4861 8.57562 11.7395 7.66382C11.8301 7.33773 11.8601 6.99219 11.8188 6.6565C11.7665 6.23189 11.6112 5.80778 11.4649 5.4079C11.0191 4.18901 10.2543 3.02983 9.03982 2.47221C8.5578 2.25093 8.05377 2.1502 7.53184 2.07751C7.28708 2.04343 7.04238 2.02252 6.79596 2.01171C6.65909 2.00573 6.5102 1.99055 6.37372 2.00849" fill="#3A3A3A"/>
<path d="M4.47143 9.89806C4.23471 9.93194 4.1659 10.1217 4.20963 10.3358C4.26563 10.6098 4.48108 10.8187 4.69456 10.9833C5.24152 11.4049 5.94799 11.6329 6.6368 11.6027C6.90559 11.5909 7.1984 11.5465 7.44506 11.4324C7.57731 11.3713 7.71565 11.1511 7.53554 11.0568C7.51086 11.0439 7.47859 11.0359 7.45109 11.0314C7.37243 11.0185 7.28435 11.052 7.20981 11.0734C7.07836 11.1112 6.94701 11.1498 6.81169 11.1715C6.40739 11.2365 5.97021 11.1441 5.63548 10.9045C5.36489 10.7108 5.14602 10.4553 4.93942 10.1971C4.81295 10.039 4.69864 9.86549 4.47133 9.89806" fill="#3A3A3A"/>
<path d="M4.1678 11.2371C4.10758 11.245 4.03851 11.2428 3.98694 11.2806C3.87937 11.3596 3.99785 11.5184 4.05445 11.5904C4.21857 11.799 4.43467 11.9721 4.65032 12.1247C5.25152 12.55 5.93255 12.7954 6.66495 12.8456C6.87552 12.86 7.09001 12.8451 7.29827 12.8104C7.37442 12.7977 7.46918 12.7919 7.53956 12.7591C7.73871 12.6659 7.68111 12.2897 7.50336 12.206C7.42575 12.1695 7.30124 12.2177 7.21985 12.229C7.02738 12.2559 6.83435 12.2586 6.64077 12.2539C6.13342 12.2414 5.59294 12.0852 5.15088 11.8385C4.97711 11.7415 4.81751 11.6235 4.66831 11.4922C4.57758 11.4123 4.48438 11.2816 4.36671 11.2412C4.31192 11.2224 4.22465 11.2296 4.16765 11.237" fill="#3A3A3A"/>
<path d="M4.28674 12.3652C4.20099 12.3748 4.13634 12.4195 4.07994 12.4832C4.04108 12.527 4.00419 12.5666 3.98187 12.6219C3.85881 12.9263 4.18686 13.2137 4.41342 13.3575C4.66556 13.5174 4.94102 13.636 5.22167 13.7359C5.85464 13.9612 6.59704 14.1054 7.25439 13.904C7.44978 13.8442 7.64291 13.7348 7.78497 13.587C7.86499 13.5037 7.91993 13.3775 7.77316 13.3242C7.68619 13.2926 7.58058 13.373 7.50171 13.4048C7.31552 13.4799 7.12249 13.5369 6.92263 13.5611C6.65937 13.593 6.42236 13.535 6.16866 13.4715C5.95196 13.4173 5.73279 13.3632 5.52327 13.285C5.34452 13.2184 5.16698 13.1392 5.01055 13.0285C4.9638 12.9955 4.9078 12.966 4.8695 12.9229C4.74428 12.782 4.65018 12.6171 4.51591 12.4831C4.4579 12.4252 4.37547 12.3552 4.28669 12.3651" fill="#3A3A3A"/>
</svg>
