<svg width="16" height="16" viewBox="0 0 16 16" fill="none" xmlns="http://www.w3.org/2000/svg">
<g clip-path="url(#clip0_2865_41639)">
<path fill-rule="evenodd" clip-rule="evenodd" d="M8 0.5C3.86414 0.5 0.5 3.86414 0.5 8C0.5 12.1359 3.86414 15.5 8 15.5C9.51483 15.5 10.976 15.0489 12.2248 14.1955L12.2263 14.1944L12.3982 14.0741L11.1968 12.6778L11.0587 12.7641L11.0568 12.7653C10.1441 13.353 9.08694 13.6633 8 13.6633C4.87743 13.6633 2.33667 11.1226 2.33667 8C2.33667 4.87743 4.87743 2.33667 8 2.33667C11.1226 2.33667 13.6633 4.87743 13.6633 8C13.6633 8.40341 13.6182 8.81249 13.5304 9.21543C13.4462 9.55936 13.2878 9.76987 13.1189 9.89223C12.948 10.016 12.7561 10.0571 12.5939 10.0449C12.4258 10.0312 12.2473 9.96446 12.1121 9.83328C11.98 9.70514 11.8773 9.50402 11.8758 9.19565V8C11.8758 5.86248 10.1375 4.12424 8 4.12424C5.86248 4.12424 4.12424 5.86248 4.12424 8C4.12424 10.1375 5.86248 11.8758 8 11.8758C8.97186 11.8758 9.8878 11.52 10.6027 10.8692C11.0441 11.4529 11.7048 11.8162 12.4468 11.8757C12.5164 11.8814 12.5874 11.8841 12.6572 11.8841C13.2275 11.8841 13.7916 11.6933 14.2467 11.3483C14.7164 10.9912 15.0636 10.4784 15.2541 9.86891L15.2543 9.86814C15.27 9.81723 15.2914 9.73684 15.3083 9.67162C15.3169 9.63844 15.3245 9.60816 15.3301 9.586L15.3368 9.55919L15.3388 9.55081L15.3397 9.54688L15.3405 9.54299L15.3407 9.54233L15.3418 9.53675C15.4516 9.05799 15.5 8.58223 15.5 8C15.5 3.86414 12.1359 0.5 8 0.5ZM10.6027 10.8692C10.5691 10.8247 10.6337 10.9161 10.6027 10.8692C10.5628 10.9087 10.6439 10.8316 10.6027 10.8692C10.6334 10.9169 10.5691 10.8241 10.6027 10.8692C10.6442 10.831 10.5627 10.9094 10.6027 10.8692ZM13.5308 9.21351L13.5299 9.21739L13.5304 9.21543L13.5308 9.21351ZM5.9609 8C5.9609 6.87576 6.87576 5.9609 8 5.9609C9.12424 5.9609 10.0391 6.87576 10.0391 8C10.0391 9.12424 9.12424 10.0391 8 10.0391C6.87576 10.0391 5.9609 9.12424 5.9609 8Z" fill="#3A3A3A"/>
</g>
<defs>
<clipPath id="clip0_2865_41639">
<rect width="16" height="16" fill="white"/>
</clipPath>
</defs>
</svg>
