<svg width="16" height="16" viewBox="0 0 16 16" fill="none" xmlns="http://www.w3.org/2000/svg">
<path fill-rule="evenodd" clip-rule="evenodd" d="M8.15041 14.96C6.77649 14.96 6.138 14.7586 5.02816 13.9528C4.32616 14.8593 2.10315 15.5677 2.00621 14.3557C2.00621 13.4459 1.80563 12.677 1.57832 11.8377C1.30754 10.8036 1 9.65201 1 7.98338C1 3.99815 4.25596 1 8.11364 1C11.9747 1 15 4.14588 15 8.02031C15.0062 9.8523 14.2885 11.6119 13.0043 12.913C11.7201 14.2141 9.97446 14.9503 8.15041 14.96ZM8.20724 4.44469C6.32854 4.34732 4.86436 5.65335 4.5401 7.70136C4.27267 9.39685 4.74736 11.4616 5.15185 11.5691C5.34574 11.6161 5.8338 11.2199 6.138 10.9144C6.64101 11.2634 7.22677 11.473 7.83618 11.5221C8.77194 11.5673 9.68801 11.242 10.3875 10.616C11.087 9.99011 11.514 9.11355 11.5769 8.17475C11.6134 7.23402 11.2809 6.31645 10.6507 5.61949C10.0205 4.92253 9.14309 4.50188 8.20724 4.44804V4.44469Z" fill="#3A3A3A"/>
</svg>
