<svg width="16" height="16" viewBox="0 0 16 16" fill="none" xmlns="http://www.w3.org/2000/svg">
<path d="M12.4442 4.12906C12.4442 6.4053 10.4464 8.25688 7.98869 8.25688C5.53154 8.25688 3.53319 6.4053 3.53319 4.12906C3.53319 1.85207 5.53154 0 7.98869 0C10.4464 0 12.4442 1.85207 12.4442 4.12906ZM9.83349 4.12904C9.83349 3.18633 9.006 2.41976 7.98869 2.41976C6.97219 2.41976 6.1439 3.18633 6.1439 4.12904C6.1439 5.07101 6.97219 5.83808 7.98869 5.83808C9.006 5.83808 9.83349 5.07101 9.83349 4.12904Z" fill="#EE8208"/>
<path d="M9.80275 11.6269C10.7097 11.4354 11.5844 11.1029 12.39 10.634C12.9997 10.2778 13.1834 9.53096 12.7992 8.96598C12.4153 8.39976 11.61 8.2293 10.9992 8.58554C9.17413 9.64905 6.82442 9.6488 5.00042 8.58554C4.38966 8.2293 3.58403 8.39976 3.20094 8.96598C2.81679 9.53146 2.99993 10.2778 3.60962 10.634C4.41525 11.1024 5.28993 11.4354 6.19687 11.6269L3.70586 13.9352C3.19668 14.4076 3.19668 15.1734 3.70639 15.6457C3.96152 15.8817 4.29529 15.9998 4.62906 15.9998C4.96336 15.9998 5.29766 15.8817 5.55279 15.6457L7.99954 13.3774L10.4484 15.6457C10.9576 16.1181 11.7838 16.1181 12.2935 15.6457C12.8037 15.1734 12.8037 14.4071 12.2935 13.9352L9.80275 11.6269Z" fill="#EE8208"/>
</svg>
