<svg width="16" height="16" viewBox="0 0 16 16" fill="none" xmlns="http://www.w3.org/2000/svg">
<path d="M13.8071 2.43632C13.8071 2.43632 15.1021 1.93132 14.9938 3.15765C14.9581 3.66265 14.6344 5.43032 14.3824 7.34199L13.5191 13.0053C13.5191 13.0053 13.4471 13.835 12.7994 13.9793C12.1521 14.1233 11.1808 13.4743 11.0008 13.33C10.8568 13.2217 8.30276 11.5983 7.40343 10.805C7.15143 10.5883 6.86343 10.1557 7.43943 9.65065L11.2164 6.04332C11.6481 5.61065 12.0798 4.60065 10.2811 5.82699L5.24443 9.25365C5.24443 9.25365 4.66876 9.61465 3.58976 9.28999L1.2511 8.56832C1.2511 8.56832 0.387765 8.02732 1.86276 7.48632C5.46043 5.79099 9.88543 4.05965 13.8064 2.43632H13.8071Z" fill="#3A3A3A"/>
</svg>
