<svg width="16" height="16" viewBox="0 0 16 16" fill="none" xmlns="http://www.w3.org/2000/svg">
<g clip-path="url(#clip0_2865_41867)">
<path fill-rule="evenodd" clip-rule="evenodd" d="M8.2599 0.013897C11.7491 0.0286137 13.4214 1.0446 13.8088 1.38496C15.0961 2.45071 15.7519 5.00098 15.2724 8.73715C14.8546 11.9998 12.5911 12.5101 11.7735 12.6944C11.6828 12.7149 11.6099 12.7313 11.5593 12.747C11.3443 12.815 9.34493 13.2948 6.832 13.1361C6.832 13.1361 4.95912 15.3209 4.37413 15.8889C4.28281 15.977 4.17544 16.0128 4.10377 15.996C4.00415 15.9721 3.97648 15.8568 3.97648 15.6882C3.97814 15.4472 3.99253 12.7042 3.99253 12.7042C0.455528 11.7541 0.537659 8.26929 0.58428 6.29117C0.585882 6.22318 0.587443 6.15696 0.588813 6.09269C0.630045 4.15865 1.00611 2.5738 2.12242 1.50804C4.12812 -0.248595 8.2599 0.013897 8.2599 0.013897ZM7.87638 1.93879C7.75024 1.93794 7.64727 2.03599 7.64639 2.15778C7.64551 2.27958 7.74706 2.37901 7.87319 2.37985C9.11615 2.38823 10.1435 2.78409 10.9709 3.56404C11.7908 4.33693 12.217 5.4021 12.2278 6.78685C12.2288 6.90865 12.3318 7.00664 12.458 7.00571C12.5841 7.00478 12.6856 6.9053 12.6846 6.7835C12.673 5.30805 12.2153 4.12059 11.29 3.24842C10.3722 2.38331 9.2291 1.9479 7.87638 1.93879ZM8.65185 4.31971C8.52588 4.31335 8.41843 4.40681 8.41185 4.52844C8.40527 4.65007 8.50205 4.75383 8.62802 4.76018C9.03143 4.78053 9.30662 4.89449 9.48722 5.07505C9.66893 5.25672 9.78498 5.53583 9.80595 5.94466C9.8122 6.06631 9.91939 6.16004 10.0454 6.15402C10.1714 6.14799 10.2684 6.04449 10.2622 5.92284C10.2378 5.44706 10.0988 5.05157 9.81578 4.76863C9.53167 4.48459 9.13248 4.34395 8.65185 4.31971ZM8.21848 3.15287C8.0981 3.15205 8.00167 3.2469 8.00084 3.36251C8.00002 3.47811 8.09509 3.57425 8.21545 3.57508C9.02049 3.58059 9.68244 3.84055 10.2162 4.35201C10.7429 4.85678 11.0201 5.55473 11.0272 6.47196C11.0281 6.58758 11.1246 6.68237 11.245 6.68147C11.3653 6.68057 11.4603 6.58437 11.4594 6.46877C11.4517 5.46531 11.145 4.65054 10.5189 4.05061C9.8998 3.45736 9.12804 3.1591 8.21848 3.15287ZM9.19062 8.77139C9.01407 8.98171 8.68615 8.95495 8.68615 8.95495C6.28944 8.36334 5.64799 6.01589 5.64799 6.01589C5.64799 6.01589 5.61921 5.69882 5.83782 5.5281L6.27089 5.19524C6.48563 5.03523 6.62261 4.64698 6.404 4.26782C6.23632 3.98322 6.05401 3.70691 5.85775 3.43994C5.66708 3.18815 5.22294 2.67253 5.22128 2.67093C5.00709 2.42663 4.69218 2.3699 4.36011 2.53714C4.35911 2.53714 4.35773 2.53757 4.3564 2.53799C4.35517 2.53837 4.35399 2.53874 4.35319 2.53874C4.02292 2.72275 3.72511 2.95651 3.47099 3.23123C3.47013 3.23291 3.46926 3.23371 3.4684 3.23451C3.4676 3.23524 3.46681 3.23598 3.46601 3.23738C3.26087 3.47678 3.14345 3.71144 3.11374 3.94138C3.10758 3.97528 3.10544 4.00975 3.10738 4.04413C3.10628 4.14566 3.12226 4.2467 3.1547 4.34328L3.16604 4.35077C3.26954 4.70611 3.52855 5.29799 4.09141 6.28481C4.41336 6.85559 4.78466 7.39901 5.20135 7.90926C5.41012 8.16504 5.6339 8.40903 5.87158 8.64001C5.87445 8.64279 5.87729 8.64556 5.88012 8.64833C5.88574 8.65383 5.89133 8.65929 5.89704 8.66463L5.97342 8.73848C6.2123 8.96831 6.46463 9.18469 6.72915 9.38655C7.2569 9.78953 7.819 10.1486 8.40942 10.4598C9.42971 11.0041 10.0424 11.2545 10.4093 11.3546L10.4171 11.3655C10.5169 11.397 10.6214 11.4125 10.7264 11.4116C10.762 11.4132 10.7976 11.4111 10.8327 11.4051C11.0709 11.3779 11.3134 11.2645 11.5602 11.0651C11.5617 11.0643 11.5624 11.0635 11.5632 11.0628C11.564 11.0619 11.5648 11.0611 11.5666 11.0602C11.8507 10.8145 12.0925 10.5265 12.283 10.2072C12.283 10.2064 12.2833 10.2053 12.2837 10.2041C12.284 10.2028 12.2844 10.2015 12.2844 10.2005C12.4574 9.87943 12.3987 9.57493 12.1447 9.36755C12.1443 9.36755 12.1236 9.35105 12.0885 9.32312C11.9446 9.20842 11.5587 8.90103 11.3493 8.75213C11.0735 8.56238 10.788 8.38609 10.494 8.22393C10.1016 8.01255 9.7009 8.145 9.53486 8.35264L9.19062 8.77139Z" fill="#3A3A3A"/>
</g>
<defs>
<clipPath id="clip0_2865_41867">
<rect width="16" height="16" fill="white"/>
</clipPath>
</defs>
</svg>
