<svg width="16" height="16" viewBox="0 0 16 16" fill="none" xmlns="http://www.w3.org/2000/svg">
<g clip-path="url(#clip0_2865_41721)">
<path fill-rule="evenodd" clip-rule="evenodd" d="M15.6333 3.96531C15.744 3.60131 15.6333 3.33331 15.1033 3.33331H13.3533C12.908 3.33331 12.7027 3.56465 12.5913 3.81998C12.5913 3.81998 11.7013 5.95065 10.4407 7.33465C10.0327 7.73598 9.84733 7.86331 9.62467 7.86331C9.51333 7.86331 9.346 7.73598 9.346 7.37131V3.96531C9.346 3.52798 9.22333 3.33331 8.85267 3.33331H6.10067C5.82267 3.33331 5.65533 3.53598 5.65533 3.72865C5.65533 4.14265 6.286 4.23865 6.35067 5.40398V7.93598C6.35067 8.49131 6.24867 8.59198 6.026 8.59198C5.43267 8.59198 3.98933 6.45131 3.13267 4.00198C2.96667 3.52531 2.79867 3.33331 2.35133 3.33331H0.6C0.1 3.33331 0 3.56465 0 3.81998C0 4.27465 0.593333 6.53331 2.76333 9.52065C4.21 11.5606 6.24667 12.6666 8.102 12.6666C9.21467 12.6666 9.352 12.4213 9.352 11.998V10.456C9.352 9.96465 9.45733 9.86665 9.81 9.86665C10.07 9.86665 10.5147 9.99465 11.5533 10.978C12.74 12.144 12.9353 12.6666 13.6033 12.6666H15.3533C15.8533 12.6666 16.104 12.4213 15.96 11.936C15.8013 11.4533 15.2347 10.7526 14.4833 9.92131C14.0753 9.44798 13.4633 8.93798 13.2773 8.68265C13.018 8.35531 13.092 8.20931 13.2773 7.91798C13.2773 7.91798 15.4113 4.96731 15.6333 3.96531Z" fill="#3A3A3A"/>
</g>
<defs>
<clipPath id="clip0_2865_41721">
<rect width="16" height="16" fill="white"/>
</clipPath>
</defs>
</svg>
